<svg xmlns="http://www.w3.org/2000/svg" width="64" height="64" viewBox="0 0 64 64"><defs><clipPath id="clip"><circle cx="32" cy="32" r="31"/></clipPath></defs><circle cx="32" cy="32" r="31" fill="#f3efe9"/><g clip-path="url(#clip)"><path d="M6 66C8 53 17 45 32 45S56 53 58 66Z" fill="#66717d"/><rect x="28" y="39" width="8" height="11" rx="4" fill="#844d39"/><ellipse cx="32" cy="30" rx="14" ry="15" fill="#a86d4f"/><ellipse cx="18.7" cy="31.5" rx="2.4" ry="3.1" fill="#844d39"/><ellipse cx="45.3" cy="31.5" rx="2.4" ry="3.1" fill="#844d39"/><path d="M19 28C18 17 24 9 32 9C40 9 46 17 45 28C41 21 37 19 32 19C27 19 23 22 19 28Z" fill="#151515"/><path d="M23 27Q26 25 29 27M35 27Q38 25 41 27" fill="none" stroke="#3b2a25" stroke-width="1.35" stroke-linecap="round"/><ellipse cx="26" cy="31" rx="1.55" ry="1.9" fill="#201b19"/><ellipse cx="38" cy="31" rx="1.55" ry="1.9" fill="#201b19"/><circle cx="26.45" cy="30.45" r=".48" fill="#fff"/><circle cx="38.45" cy="30.45" r=".48" fill="#fff"/><path d="M31 32L30 35Q32 36.2 34 35" fill="none" stroke="#844d39" stroke-width="1.05" stroke-linecap="round"/><circle cx="23.2" cy="35.2" r="1.25" fill="#ee8a83" opacity=".23"/><circle cx="40.8" cy="35.2" r="1.25" fill="#ee8a83" opacity=".23"/><path d="M22.8 35Q24.2 44.3 32 44.3Q39.8 44.3 41.2 35Q38.5 39 32 39Q25.5 39 22.8 35Z" fill="#382722"/><path d="M28.2 36.2Q32 38.3 35.8 36.2" fill="none" stroke="#a35651" stroke-width="1.1" stroke-linecap="round"/><path d="M27.2 36.2Q32 40 36.8 36.2" fill="none" stroke="#a35651" stroke-width="1.45" stroke-linecap="round"/></g></svg>