<svg xmlns="http://www.w3.org/2000/svg" width="64" height="64" viewBox="0 0 64 64"><defs><clipPath id="c"><circle cx="32" cy="32" r="31"/></clipPath><linearGradient id="bg" x1="0" y1="0" x2="1" y2="1"><stop stop-color="#f5c6dc"/><stop offset="1" stop-color="#f5c6dc" stop-opacity=".72"/></linearGradient></defs><circle cx="32" cy="32" r="31" fill="url(#bg)"/><g clip-path="url(#c)"><ellipse cx="32" cy="68" rx="26" ry="24" fill="#3f4859"/><path d="M25 42H39V53H25Z" fill="#a96545"/><ellipse cx="32" cy="29" rx="14" ry="16" fill="#a96545"/><ellipse cx="18.4" cy="31" rx="2.5" ry="3.5" fill="#a96545"/><ellipse cx="45.6" cy="31" rx="2.5" ry="3.5" fill="#a96545"/><path d="M17 29Q13 8 31 7Q50 7 47 29L43 23Q34 16 23 23Z" fill="#a85d65"/><path d="M17 22Q12 32 17 43L22 45L22 24ZM46 22Q51 32 46 43L41 45L41 24Z" fill="#a85d65"/><path d="M23 27Q26 25 29 27M35 27Q38 25 41 27" stroke="#49332c" stroke-width="1.3" stroke-linecap="round" fill="none"/><ellipse cx="26" cy="31" rx="1.6" ry="2" fill="#242126"/><ellipse cx="38" cy="31" rx="1.6" ry="2" fill="#242126"/><circle cx="26.5" cy="30.4" r=".5" fill="#fff"/><circle cx="38.5" cy="30.4" r=".5" fill="#fff"/><path d="M30 34L29.5 36Q32 37.5 34 36" stroke="#bd8066" stroke-width="1" fill="none" stroke-linecap="round"/><path d="M27 40Q32 43 37 40" stroke="#a64f50" stroke-width="1.5" fill="none" stroke-linecap="round"/><path d="M25 50L32 57L39 50" fill="#f4f2ef" opacity=".85"/></g></svg>