<svg xmlns="http://www.w3.org/2000/svg" width="64" height="64" viewBox="0 0 64 64"><defs><clipPath id="c"><circle cx="32" cy="32" r="31"/></clipPath></defs><circle cx="32" cy="32" r="31" fill="#c8f4dc"/><g clip-path="url(#c)"><ellipse cx="32" cy="68" rx="26" ry="24" fill="#9b6b43"/><path d="M25 42H39V53H25Z" fill="#a96545"/><ellipse cx="32" cy="29" rx="14" ry="16" fill="#a96545"/><path d="M17 29Q13 8 31 7Q50 7 47 29L43 23Q34 16 23 23Z" fill="#17191d"/><path d="M23 27Q26 25 29 27M35 27Q38 25 41 27" stroke="#49332c" stroke-width="1.3" fill="none"/><ellipse cx="26" cy="31" rx="1.6" ry="2" fill="#242126"/><ellipse cx="38" cy="31" rx="1.6" ry="2" fill="#242126"/><path d="M30 34L29.5 36Q32 37.5 34 36M27 40Q32 43 37 40" stroke="#bd8066" stroke-width="1.2" fill="none"/><path d="M20 34Q32 47 44 34L42 40Q32 49 22 40Z" fill="#17191d"/><g fill="none" stroke="#282a31" stroke-width="1.7"><rect x="19" y="27" width="10" height="7" rx="2"/><rect x="35" y="27" width="10" height="7" rx="2"/><path d="M29 29H35"/></g></g></svg>