<?xml version="1.0" encoding="UTF-8"?>
<svg xmlns="http://www.w3.org/2000/svg" width="64" height="64" viewBox="0 0 64 64"><defs><clipPath id="clip"><circle cx="32" cy="32" r="31"/></clipPath></defs>
  <symbol id="avatar-01" viewBox="0 0 64 64"><circle cx="32" cy="32" r="31" fill="#e9f1ed"/><g clip-path="url(#clip)"><path d="M6 66C8 53 17 45 32 45S56 53 58 66Z" fill="#4d6f91"/><rect x="28" y="39" width="8" height="11" rx="4" fill="#d69a72"/><ellipse cx="32" cy="30" rx="14" ry="15" fill="#f2c19a"/><ellipse cx="18.7" cy="31.5" rx="2.4" ry="3.1" fill="#d69a72"/><ellipse cx="45.3" cy="31.5" rx="2.4" ry="3.1" fill="#d69a72"/><path d="M17 28C15 18 21 8 31 7C42 6 50 16 47 29C42 23 38 20 32 20C26 20 22 23 17 28Z M20 16C25 11 29 9 34 10C39 10 43 12 46 16L43 20C37 16 28 15 21 21Z" fill="#2b2522"/><path d="M23 27Q26 25 29 27M35 27Q38 25 41 27" fill="none" stroke="#3b2a25" stroke-width="1.35" stroke-linecap="round"/><ellipse cx="26" cy="31" rx="1.55" ry="1.9" fill="#201b19"/><ellipse cx="38" cy="31" rx="1.55" ry="1.9" fill="#201b19"/><circle cx="26.45" cy="30.45" r=".48" fill="#fff"/><circle cx="38.45" cy="30.45" r=".48" fill="#fff"/><path d="M31 32L30 35Q32 36.2 34 35" fill="none" stroke="#d69a72" stroke-width="1.05" stroke-linecap="round"/><circle cx="23.2" cy="35.2" r="1.25" fill="#ee8a83" opacity=".23"/><circle cx="40.8" cy="35.2" r="1.25" fill="#ee8a83" opacity=".23"/><path d="M17 48Q32 39 47 48L44 56H20Z" fill="#4d6f91" opacity=".95"/><path d="M27.2 36.2Q32 40 36.8 36.2" fill="none" stroke="#a35651" stroke-width="1.45" stroke-linecap="round"/></g></symbol>
  <symbol id="avatar-02" viewBox="0 0 64 64"><circle cx="32" cy="32" r="31" fill="#edf1f8"/><g clip-path="url(#clip)"><path d="M6 66C8 53 17 45 32 45S56 53 58 66Z" fill="#3f6d98"/><rect x="28" y="39" width="8" height="11" rx="4" fill="#bd7551"/><ellipse cx="32" cy="30" rx="14" ry="15" fill="#d99b72"/><ellipse cx="18.7" cy="31.5" rx="2.4" ry="3.1" fill="#bd7551"/><ellipse cx="45.3" cy="31.5" rx="2.4" ry="3.1" fill="#bd7551"/><path d="M17 29C15 18 21 8 32 7C42 7 48 14 47 25L41 20C37 16 32 14 26 15C22 16 19 20 17 29Z M27 10C34 7 41 9 45 15C39 14 34 15 29 19Z" fill="#231d1c"/><path d="M23 27Q26 25 29 27M35 27Q38 25 41 27" fill="none" stroke="#3b2a25" stroke-width="1.35" stroke-linecap="round"/><ellipse cx="26" cy="31" rx="1.55" ry="1.9" fill="#201b19"/><ellipse cx="38" cy="31" rx="1.55" ry="1.9" fill="#201b19"/><circle cx="26.45" cy="30.45" r=".48" fill="#fff"/><circle cx="38.45" cy="30.45" r=".48" fill="#fff"/><path d="M31 32L30 35Q32 36.2 34 35" fill="none" stroke="#bd7551" stroke-width="1.05" stroke-linecap="round"/><circle cx="23.2" cy="35.2" r="1.25" fill="#ee8a83" opacity=".23"/><circle cx="40.8" cy="35.2" r="1.25" fill="#ee8a83" opacity=".23"/><circle cx="26" cy="31" r="4.45" fill="none" stroke="#303030" stroke-width="1.3"/><circle cx="38" cy="31" r="4.45" fill="none" stroke="#303030" stroke-width="1.3"/><path d="M30.35 31H33.65" stroke="#303030" stroke-width="1.15"/><path d="M27.2 36.2Q32 40 36.8 36.2" fill="none" stroke="#a35651" stroke-width="1.45" stroke-linecap="round"/></g></symbol>
  <symbol id="avatar-03" viewBox="0 0 64 64"><circle cx="32" cy="32" r="31" fill="#f7eee5"/><g clip-path="url(#clip)"><path d="M6 66C8 53 17 45 32 45S56 53 58 66Z" fill="#a96b43"/><rect x="28" y="39" width="8" height="11" rx="4" fill="#70402f"/><ellipse cx="32" cy="30" rx="14" ry="15" fill="#8e583f"/><ellipse cx="18.7" cy="31.5" rx="2.4" ry="3.1" fill="#70402f"/><ellipse cx="45.3" cy="31.5" rx="2.4" ry="3.1" fill="#70402f"/><path d="M16 29C13 24 15 18 18 15C17 10 22 7 26 9C29 5 34 6 36 9C41 6 46 10 45 15C50 17 49 24 47 29C42 23 38 20 32 20C25 20 21 23 16 29Z" fill="#1c1514"/><path d="M23 27Q26 25 29 27M35 27Q38 25 41 27" fill="none" stroke="#3b2a25" stroke-width="1.35" stroke-linecap="round"/><ellipse cx="26" cy="31" rx="1.55" ry="1.9" fill="#201b19"/><ellipse cx="38" cy="31" rx="1.55" ry="1.9" fill="#201b19"/><circle cx="26.45" cy="30.45" r=".48" fill="#fff"/><circle cx="38.45" cy="30.45" r=".48" fill="#fff"/><path d="M31 32L30 35Q32 36.2 34 35" fill="none" stroke="#70402f" stroke-width="1.05" stroke-linecap="round"/><circle cx="23.2" cy="35.2" r="1.25" fill="#ee8a83" opacity=".23"/><circle cx="40.8" cy="35.2" r="1.25" fill="#ee8a83" opacity=".23"/><path d="M22.8 35Q24.2 44.3 32 44.3Q39.8 44.3 41.2 35Q38.5 39 32 39Q25.5 39 22.8 35Z" fill="#382722"/><path d="M28.2 36.2Q32 38.3 35.8 36.2" fill="none" stroke="#a35651" stroke-width="1.1" stroke-linecap="round"/><path d="M27.2 36.2Q32 40 36.8 36.2" fill="none" stroke="#a35651" stroke-width="1.45" stroke-linecap="round"/></g></symbol>
  <symbol id="avatar-04" viewBox="0 0 64 64"><circle cx="32" cy="32" r="31" fill="#eef5fa"/><g clip-path="url(#clip)"><path d="M6 66C8 53 17 45 32 45S56 53 58 66Z" fill="#56758f"/><rect x="28" y="39" width="8" height="11" rx="4" fill="#a76448"/><ellipse cx="32" cy="30" rx="14" ry="15" fill="#c88763"/><ellipse cx="18.7" cy="31.5" rx="2.4" ry="3.1" fill="#a76448"/><ellipse cx="45.3" cy="31.5" rx="2.4" ry="3.1" fill="#a76448"/><path d="M18 29C17 17 23 8 32 8C41 8 47 16 46 29C42 22 38 20 32 20C26 20 22 23 18 29Z M21 17C24 12 28 10 32 10C36 10 40 12 43 17" fill="#34251f"/><path d="M23 27Q26 25 29 27M35 27Q38 25 41 27" fill="none" stroke="#3b2a25" stroke-width="1.35" stroke-linecap="round"/><ellipse cx="26" cy="31" rx="1.55" ry="1.9" fill="#201b19"/><ellipse cx="38" cy="31" rx="1.55" ry="1.9" fill="#201b19"/><circle cx="26.45" cy="30.45" r=".48" fill="#fff"/><circle cx="38.45" cy="30.45" r=".48" fill="#fff"/><path d="M31 32L30 35Q32 36.2 34 35" fill="none" stroke="#a76448" stroke-width="1.05" stroke-linecap="round"/><circle cx="23.2" cy="35.2" r="1.25" fill="#ee8a83" opacity=".23"/><circle cx="40.8" cy="35.2" r="1.25" fill="#ee8a83" opacity=".23"/><path d="M27.2 36.2Q32 40 36.8 36.2" fill="none" stroke="#a35651" stroke-width="1.45" stroke-linecap="round"/></g></symbol>
  <symbol id="avatar-05" viewBox="0 0 64 64"><circle cx="32" cy="32" r="31" fill="#f3edf8"/><g clip-path="url(#clip)"><path d="M6 66C8 53 17 45 32 45S56 53 58 66Z" fill="#78639a"/><rect x="28" y="39" width="8" height="11" rx="4" fill="#d9a077"/><ellipse cx="32" cy="30" rx="14" ry="15" fill="#f1c39e"/><ellipse cx="18.7" cy="31.5" rx="2.4" ry="3.1" fill="#d9a077"/><ellipse cx="45.3" cy="31.5" rx="2.4" ry="3.1" fill="#d9a077"/><path d="M16 29C14 20 17 13 24 9C31 5 40 7 44 13C48 18 47 24 46 29C42 23 38 20 32 20C26 20 21 23 16 29Z M20 17C25 12 31 10 37 12C41 13 44 15 46 18" fill="#5b3428"/><path d="M23 27Q26 25 29 27M35 27Q38 25 41 27" fill="none" stroke="#3b2a25" stroke-width="1.35" stroke-linecap="round"/><ellipse cx="26" cy="31" rx="1.55" ry="1.9" fill="#201b19"/><ellipse cx="38" cy="31" rx="1.55" ry="1.9" fill="#201b19"/><circle cx="26.45" cy="30.45" r=".48" fill="#fff"/><circle cx="38.45" cy="30.45" r=".48" fill="#fff"/><path d="M31 32L30 35Q32 36.2 34 35" fill="none" stroke="#d9a077" stroke-width="1.05" stroke-linecap="round"/><circle cx="23.2" cy="35.2" r="1.25" fill="#ee8a83" opacity=".23"/><circle cx="40.8" cy="35.2" r="1.25" fill="#ee8a83" opacity=".23"/><circle cx="26" cy="31" r="4.45" fill="none" stroke="#303030" stroke-width="1.3"/><circle cx="38" cy="31" r="4.45" fill="none" stroke="#303030" stroke-width="1.3"/><path d="M30.35 31H33.65" stroke="#303030" stroke-width="1.15"/><path d="M27.2 36.2Q32 40 36.8 36.2" fill="none" stroke="#a35651" stroke-width="1.45" stroke-linecap="round"/></g></symbol>
  <symbol id="avatar-06" viewBox="0 0 64 64"><circle cx="32" cy="32" r="31" fill="#f3efe9"/><g clip-path="url(#clip)"><path d="M6 66C8 53 17 45 32 45S56 53 58 66Z" fill="#66717d"/><rect x="28" y="39" width="8" height="11" rx="4" fill="#844d39"/><ellipse cx="32" cy="30" rx="14" ry="15" fill="#a86d4f"/><ellipse cx="18.7" cy="31.5" rx="2.4" ry="3.1" fill="#844d39"/><ellipse cx="45.3" cy="31.5" rx="2.4" ry="3.1" fill="#844d39"/><path d="M19 28C18 17 24 9 32 9C40 9 46 17 45 28C41 21 37 19 32 19C27 19 23 22 19 28Z" fill="#151515"/><path d="M23 27Q26 25 29 27M35 27Q38 25 41 27" fill="none" stroke="#3b2a25" stroke-width="1.35" stroke-linecap="round"/><ellipse cx="26" cy="31" rx="1.55" ry="1.9" fill="#201b19"/><ellipse cx="38" cy="31" rx="1.55" ry="1.9" fill="#201b19"/><circle cx="26.45" cy="30.45" r=".48" fill="#fff"/><circle cx="38.45" cy="30.45" r=".48" fill="#fff"/><path d="M31 32L30 35Q32 36.2 34 35" fill="none" stroke="#844d39" stroke-width="1.05" stroke-linecap="round"/><circle cx="23.2" cy="35.2" r="1.25" fill="#ee8a83" opacity=".23"/><circle cx="40.8" cy="35.2" r="1.25" fill="#ee8a83" opacity=".23"/><path d="M22.8 35Q24.2 44.3 32 44.3Q39.8 44.3 41.2 35Q38.5 39 32 39Q25.5 39 22.8 35Z" fill="#382722"/><path d="M28.2 36.2Q32 38.3 35.8 36.2" fill="none" stroke="#a35651" stroke-width="1.1" stroke-linecap="round"/><path d="M27.2 36.2Q32 40 36.8 36.2" fill="none" stroke="#a35651" stroke-width="1.45" stroke-linecap="round"/></g></symbol>
  <symbol id="avatar-07" viewBox="0 0 64 64"><circle cx="32" cy="32" r="31" fill="#eaf3ee"/><g clip-path="url(#clip)"><path d="M6 66C8 53 17 45 32 45S56 53 58 66Z" fill="#3c7862"/><rect x="28" y="39" width="8" height="11" rx="4" fill="#bd7758"/><ellipse cx="32" cy="30" rx="14" ry="15" fill="#dda47e"/><ellipse cx="18.7" cy="31.5" rx="2.4" ry="3.1" fill="#bd7758"/><ellipse cx="45.3" cy="31.5" rx="2.4" ry="3.1" fill="#bd7758"/><path d="M18 29C16 18 21 10 30 9C34 5 43 8 46 14C48 19 47 24 46 29C42 23 37 20 31 20C26 20 22 23 18 29Z M28 10C34 6 40 9 43 13C37 12 33 13 29 16Z" fill="#1f1d1c"/><path d="M23 27Q26 25 29 27M35 27Q38 25 41 27" fill="none" stroke="#3b2a25" stroke-width="1.35" stroke-linecap="round"/><ellipse cx="26" cy="31" rx="1.55" ry="1.9" fill="#201b19"/><ellipse cx="38" cy="31" rx="1.55" ry="1.9" fill="#201b19"/><circle cx="26.45" cy="30.45" r=".48" fill="#fff"/><circle cx="38.45" cy="30.45" r=".48" fill="#fff"/><path d="M31 32L30 35Q32 36.2 34 35" fill="none" stroke="#bd7758" stroke-width="1.05" stroke-linecap="round"/><circle cx="23.2" cy="35.2" r="1.25" fill="#ee8a83" opacity=".23"/><circle cx="40.8" cy="35.2" r="1.25" fill="#ee8a83" opacity=".23"/><path d="M27.2 36.2Q32 40 36.8 36.2" fill="none" stroke="#a35651" stroke-width="1.45" stroke-linecap="round"/></g></symbol>
  <symbol id="avatar-08" viewBox="0 0 64 64"><circle cx="32" cy="32" r="31" fill="#f7eef0"/><g clip-path="url(#clip)"><path d="M6 66C8 53 17 45 32 45S56 53 58 66Z" fill="#86576b"/><rect x="28" y="39" width="8" height="11" rx="4" fill="#5f3528"/><ellipse cx="32" cy="30" rx="14" ry="15" fill="#7d4c38"/><ellipse cx="18.7" cy="31.5" rx="2.4" ry="3.1" fill="#5f3528"/><ellipse cx="45.3" cy="31.5" rx="2.4" ry="3.1" fill="#5f3528"/><path d="M16 29C13 24 15 18 18 15C17 10 22 7 26 9C29 5 34 6 36 9C41 6 46 10 45 15C50 17 49 24 47 29C42 23 38 20 32 20C25 20 21 23 16 29Z" fill="#211717"/><path d="M23 27Q26 25 29 27M35 27Q38 25 41 27" fill="none" stroke="#3b2a25" stroke-width="1.35" stroke-linecap="round"/><ellipse cx="26" cy="31" rx="1.55" ry="1.9" fill="#201b19"/><ellipse cx="38" cy="31" rx="1.55" ry="1.9" fill="#201b19"/><circle cx="26.45" cy="30.45" r=".48" fill="#fff"/><circle cx="38.45" cy="30.45" r=".48" fill="#fff"/><path d="M31 32L30 35Q32 36.2 34 35" fill="none" stroke="#5f3528" stroke-width="1.05" stroke-linecap="round"/><circle cx="23.2" cy="35.2" r="1.25" fill="#ee8a83" opacity=".23"/><circle cx="40.8" cy="35.2" r="1.25" fill="#ee8a83" opacity=".23"/><circle cx="26" cy="31" r="4.45" fill="none" stroke="#303030" stroke-width="1.3"/><circle cx="38" cy="31" r="4.45" fill="none" stroke="#303030" stroke-width="1.3"/><path d="M30.35 31H33.65" stroke="#303030" stroke-width="1.15"/><path d="M27.2 36.2Q32 40 36.8 36.2" fill="none" stroke="#a35651" stroke-width="1.45" stroke-linecap="round"/></g></symbol>
  <symbol id="avatar-09" viewBox="0 0 64 64"><circle cx="32" cy="32" r="31" fill="#eef3f8"/><g clip-path="url(#clip)"><path d="M6 66C8 53 17 45 32 45S56 53 58 66Z" fill="#3c668d"/><rect x="28" y="39" width="8" height="11" rx="4" fill="#d39469"/><ellipse cx="32" cy="30" rx="14" ry="15" fill="#ebb68d"/><ellipse cx="18.7" cy="31.5" rx="2.4" ry="3.1" fill="#d39469"/><ellipse cx="45.3" cy="31.5" rx="2.4" ry="3.1" fill="#d39469"/><path d="M17 29C15 18 21 7 32 7C43 7 49 15 46 29C42 23 37 20 30 20C24 20 20 23 17 29Z M21 16C27 10 36 9 44 13L46 17C37 14 29 15 23 20Z" fill="#6a3c2d"/><path d="M23 27Q26 25 29 27M35 27Q38 25 41 27" fill="none" stroke="#3b2a25" stroke-width="1.35" stroke-linecap="round"/><ellipse cx="26" cy="31" rx="1.55" ry="1.9" fill="#201b19"/><ellipse cx="38" cy="31" rx="1.55" ry="1.9" fill="#201b19"/><circle cx="26.45" cy="30.45" r=".48" fill="#fff"/><circle cx="38.45" cy="30.45" r=".48" fill="#fff"/><path d="M31 32L30 35Q32 36.2 34 35" fill="none" stroke="#d39469" stroke-width="1.05" stroke-linecap="round"/><circle cx="23.2" cy="35.2" r="1.25" fill="#ee8a83" opacity=".23"/><circle cx="40.8" cy="35.2" r="1.25" fill="#ee8a83" opacity=".23"/><path d="M21 28Q21 15 32 14Q43 15 43 28" fill="none" stroke="#25272a" stroke-width="3" stroke-linecap="round"/><rect x="18.5" y="27" width="5" height="10" rx="2.5" fill="#25272a"/><rect x="40.5" y="27" width="5" height="10" rx="2.5" fill="#25272a"/><path d="M27.2 36.2Q32 40 36.8 36.2" fill="none" stroke="#a35651" stroke-width="1.45" stroke-linecap="round"/></g></symbol>
  <symbol id="avatar-10" viewBox="0 0 64 64"><circle cx="32" cy="32" r="31" fill="#f7f0e7"/><g clip-path="url(#clip)"><path d="M6 66C8 53 17 45 32 45S56 53 58 66Z" fill="#936c4f"/><rect x="28" y="39" width="8" height="11" rx="4" fill="#8f543c"/><ellipse cx="32" cy="30" rx="14" ry="15" fill="#b87853"/><ellipse cx="18.7" cy="31.5" rx="2.4" ry="3.1" fill="#8f543c"/><ellipse cx="45.3" cy="31.5" rx="2.4" ry="3.1" fill="#8f543c"/><path d="M18 29C17 18 22 9 32 9C41 9 47 16 46 29C42 23 38 21 32 21C26 21 22 23 18 29Z M19 19C20 14 24 10 29 9L29 13C25 15 23 17 22 21Z" fill="#332525"/><path d="M23 27Q26 25 29 27M35 27Q38 25 41 27" fill="none" stroke="#3b2a25" stroke-width="1.35" stroke-linecap="round"/><ellipse cx="26" cy="31" rx="1.55" ry="1.9" fill="#201b19"/><ellipse cx="38" cy="31" rx="1.55" ry="1.9" fill="#201b19"/><circle cx="26.45" cy="30.45" r=".48" fill="#fff"/><circle cx="38.45" cy="30.45" r=".48" fill="#fff"/><path d="M31 32L30 35Q32 36.2 34 35" fill="none" stroke="#8f543c" stroke-width="1.05" stroke-linecap="round"/><circle cx="23.2" cy="35.2" r="1.25" fill="#ee8a83" opacity=".23"/><circle cx="40.8" cy="35.2" r="1.25" fill="#ee8a83" opacity=".23"/><path d="M22.8 35Q24.2 44.3 32 44.3Q39.8 44.3 41.2 35Q38.5 39 32 39Q25.5 39 22.8 35Z" fill="#382722"/><path d="M28.2 36.2Q32 38.3 35.8 36.2" fill="none" stroke="#a35651" stroke-width="1.1" stroke-linecap="round"/><path d="M27.2 36.2Q32 40 36.8 36.2" fill="none" stroke="#a35651" stroke-width="1.45" stroke-linecap="round"/></g></symbol>
  <symbol id="avatar-11" viewBox="0 0 64 64"><circle cx="32" cy="32" r="31" fill="#eef4ed"/><g clip-path="url(#clip)"><path d="M5 66C7 54 15 47 23 44C27 47 37 47 41 44C50 47 57 55 59 66Z" fill="#5c806b"/><rect x="28" y="39" width="8" height="11" rx="4" fill="#ce8e6b"/><ellipse cx="32" cy="30" rx="14" ry="15" fill="#e7b893"/><ellipse cx="18.7" cy="31.5" rx="2.4" ry="3.1" fill="#ce8e6b"/><ellipse cx="45.3" cy="31.5" rx="2.4" ry="3.1" fill="#ce8e6b"/><path d="M16 31C13 19 18 8 28 6C38 4 47 12 48 25L46 43C42 49 37 52 32 52C24 52 18 46 16 39Z" fill="#3e2b27"/><path d="M23 27Q26 25 29 27M35 27Q38 25 41 27" fill="none" stroke="#3b2a25" stroke-width="1.35" stroke-linecap="round"/><ellipse cx="26" cy="31" rx="1.55" ry="1.9" fill="#201b19"/><ellipse cx="38" cy="31" rx="1.55" ry="1.9" fill="#201b19"/><circle cx="26.45" cy="30.45" r=".48" fill="#fff"/><circle cx="38.45" cy="30.45" r=".48" fill="#fff"/><path d="M31 32L30 35Q32 36.2 34 35" fill="none" stroke="#ce8e6b" stroke-width="1.05" stroke-linecap="round"/><circle cx="23.2" cy="35.2" r="1.25" fill="#ee8a83" opacity=".23"/><circle cx="40.8" cy="35.2" r="1.25" fill="#ee8a83" opacity=".23"/><path d="M27.2 36.2Q32 40 36.8 36.2" fill="none" stroke="#a35651" stroke-width="1.45" stroke-linecap="round"/></g></symbol>
  <symbol id="avatar-12" viewBox="0 0 64 64"><circle cx="32" cy="32" r="31" fill="#f3edf7"/><g clip-path="url(#clip)"><path d="M5 66C7 54 15 47 23 44C27 47 37 47 41 44C50 47 57 55 59 66Z" fill="#8661a8"/><rect x="28" y="39" width="8" height="11" rx="4" fill="#b86e4d"/><ellipse cx="32" cy="30" rx="14" ry="15" fill="#d5966e"/><ellipse cx="18.7" cy="31.5" rx="2.4" ry="3.1" fill="#b86e4d"/><ellipse cx="45.3" cy="31.5" rx="2.4" ry="3.1" fill="#b86e4d"/><path d="M16 29C15 15 22 7 32 7C43 7 50 15 48 30L45 40L40 31C37 24 27 22 21 30L18 40Z" fill="#553027"/><path d="M23 27Q26 25 29 27M35 27Q38 25 41 27" fill="none" stroke="#3b2a25" stroke-width="1.35" stroke-linecap="round"/><ellipse cx="26" cy="31" rx="1.55" ry="1.9" fill="#201b19"/><ellipse cx="38" cy="31" rx="1.55" ry="1.9" fill="#201b19"/><circle cx="26.45" cy="30.45" r=".48" fill="#fff"/><circle cx="38.45" cy="30.45" r=".48" fill="#fff"/><path d="M31 32L30 35Q32 36.2 34 35" fill="none" stroke="#b86e4d" stroke-width="1.05" stroke-linecap="round"/><circle cx="23.2" cy="35.2" r="1.25" fill="#ee8a83" opacity=".23"/><circle cx="40.8" cy="35.2" r="1.25" fill="#ee8a83" opacity=".23"/><circle cx="26" cy="31" r="4.45" fill="none" stroke="#303030" stroke-width="1.3"/><circle cx="38" cy="31" r="4.45" fill="none" stroke="#303030" stroke-width="1.3"/><path d="M30.35 31H33.65" stroke="#303030" stroke-width="1.15"/><path d="M27.2 36.2Q32 40 36.8 36.2" fill="none" stroke="#a35651" stroke-width="1.45" stroke-linecap="round"/></g></symbol>
  <symbol id="avatar-13" viewBox="0 0 64 64"><circle cx="32" cy="32" r="31" fill="#f8eee8"/><g clip-path="url(#clip)"><path d="M5 66C7 54 15 47 23 44C27 47 37 47 41 44C50 47 57 55 59 66Z" fill="#c97f6b"/><rect x="28" y="39" width="8" height="11" rx="4" fill="#7f452f"/><ellipse cx="32" cy="30" rx="14" ry="15" fill="#a26045"/><ellipse cx="18.7" cy="31.5" rx="2.4" ry="3.1" fill="#7f452f"/><ellipse cx="45.3" cy="31.5" rx="2.4" ry="3.1" fill="#7f452f"/><path d="M17 30C15 17 22 8 32 7C42 7 49 16 47 29L44 41L39 31C37 23 27 22 20 31L18 40Z M43 14C51 10 54 17 50 23C48 26 46 28 43 27Z" fill="#1b1515"/><path d="M23 27Q26 25 29 27M35 27Q38 25 41 27" fill="none" stroke="#3b2a25" stroke-width="1.35" stroke-linecap="round"/><ellipse cx="26" cy="31" rx="1.55" ry="1.9" fill="#201b19"/><ellipse cx="38" cy="31" rx="1.55" ry="1.9" fill="#201b19"/><circle cx="26.45" cy="30.45" r=".48" fill="#fff"/><circle cx="38.45" cy="30.45" r=".48" fill="#fff"/><path d="M31 32L30 35Q32 36.2 34 35" fill="none" stroke="#7f452f" stroke-width="1.05" stroke-linecap="round"/><circle cx="23.2" cy="35.2" r="1.25" fill="#ee8a83" opacity=".23"/><circle cx="40.8" cy="35.2" r="1.25" fill="#ee8a83" opacity=".23"/><circle cx="19" cy="34.6" r="1.7" fill="#c9a348"/><circle cx="45" cy="34.6" r="1.7" fill="#c9a348"/><path d="M27.2 36.2Q32 40 36.8 36.2" fill="none" stroke="#a35651" stroke-width="1.45" stroke-linecap="round"/></g></symbol>
  <symbol id="avatar-14" viewBox="0 0 64 64"><circle cx="32" cy="32" r="31" fill="#edf3f8"/><g clip-path="url(#clip)"><path d="M5 66C7 54 15 47 23 44C27 47 37 47 41 44C50 47 57 55 59 66Z" fill="#5d7897"/><rect x="28" y="39" width="8" height="11" rx="4" fill="#dba174"/><ellipse cx="32" cy="30" rx="14" ry="15" fill="#f1c39d"/><ellipse cx="18.7" cy="31.5" rx="2.4" ry="3.1" fill="#dba174"/><ellipse cx="45.3" cy="31.5" rx="2.4" ry="3.1" fill="#dba174"/><path d="M16 31C14 17 20 6 32 6C44 6 50 17 48 31L46 44C42 50 37 52 32 52C24 52 18 47 16 39Z" fill="#6d3c2d"/><path d="M23 27Q26 25 29 27M35 27Q38 25 41 27" fill="none" stroke="#3b2a25" stroke-width="1.35" stroke-linecap="round"/><ellipse cx="26" cy="31" rx="1.55" ry="1.9" fill="#201b19"/><ellipse cx="38" cy="31" rx="1.55" ry="1.9" fill="#201b19"/><circle cx="26.45" cy="30.45" r=".48" fill="#fff"/><circle cx="38.45" cy="30.45" r=".48" fill="#fff"/><path d="M31 32L30 35Q32 36.2 34 35" fill="none" stroke="#dba174" stroke-width="1.05" stroke-linecap="round"/><circle cx="23.2" cy="35.2" r="1.25" fill="#ee8a83" opacity=".23"/><circle cx="40.8" cy="35.2" r="1.25" fill="#ee8a83" opacity=".23"/><path d="M27.2 36.2Q32 40 36.8 36.2" fill="none" stroke="#a35651" stroke-width="1.45" stroke-linecap="round"/></g></symbol>
  <symbol id="avatar-15" viewBox="0 0 64 64"><circle cx="32" cy="32" r="31" fill="#f8eef3"/><g clip-path="url(#clip)"><path d="M5 66C7 54 15 47 23 44C27 47 37 47 41 44C50 47 57 55 59 66Z" fill="#9c5e78"/><rect x="28" y="39" width="8" height="11" rx="4" fill="#a55e3f"/><ellipse cx="32" cy="30" rx="14" ry="15" fill="#c67c56"/><ellipse cx="18.7" cy="31.5" rx="2.4" ry="3.1" fill="#a55e3f"/><ellipse cx="45.3" cy="31.5" rx="2.4" ry="3.1" fill="#a55e3f"/><path d="M16 32C12 27 14 17 19 14C17 8 24 4 29 8C34 3 42 7 42 12C49 11 52 19 48 24C52 31 47 41 46 44C43 50 37 52 32 52C24 52 18 47 16 40Z" fill="#38211c"/><path d="M23 27Q26 25 29 27M35 27Q38 25 41 27" fill="none" stroke="#3b2a25" stroke-width="1.35" stroke-linecap="round"/><ellipse cx="26" cy="31" rx="1.55" ry="1.9" fill="#201b19"/><ellipse cx="38" cy="31" rx="1.55" ry="1.9" fill="#201b19"/><circle cx="26.45" cy="30.45" r=".48" fill="#fff"/><circle cx="38.45" cy="30.45" r=".48" fill="#fff"/><path d="M31 32L30 35Q32 36.2 34 35" fill="none" stroke="#a55e3f" stroke-width="1.05" stroke-linecap="round"/><circle cx="23.2" cy="35.2" r="1.25" fill="#ee8a83" opacity=".23"/><circle cx="40.8" cy="35.2" r="1.25" fill="#ee8a83" opacity=".23"/><circle cx="19" cy="34.6" r="1.7" fill="#c9a348"/><circle cx="45" cy="34.6" r="1.7" fill="#c9a348"/><path d="M27.2 36.2Q32 40 36.8 36.2" fill="none" stroke="#a35651" stroke-width="1.45" stroke-linecap="round"/></g></symbol>
  <symbol id="avatar-16" viewBox="0 0 64 64"><circle cx="32" cy="32" r="31" fill="#eef5f2"/><g clip-path="url(#clip)"><path d="M5 66C7 54 15 47 23 44C27 47 37 47 41 44C50 47 57 55 59 66Z" fill="#5d866f"/><rect x="28" y="39" width="8" height="11" rx="4" fill="#6d3d2d"/><ellipse cx="32" cy="30" rx="14" ry="15" fill="#8d553c"/><ellipse cx="18.7" cy="31.5" rx="2.4" ry="3.1" fill="#6d3d2d"/><ellipse cx="45.3" cy="31.5" rx="2.4" ry="3.1" fill="#6d3d2d"/><path d="M17 30C15 17 22 7 32 7C42 7 49 16 47 29L45 40L40 31C37 23 27 22 20 31L18 40Z M25 10C24 4 28 1 32 1C37 1 40 4 39 10C36 8 29 8 25 10Z" fill="#171515"/><path d="M23 27Q26 25 29 27M35 27Q38 25 41 27" fill="none" stroke="#3b2a25" stroke-width="1.35" stroke-linecap="round"/><ellipse cx="26" cy="31" rx="1.55" ry="1.9" fill="#201b19"/><ellipse cx="38" cy="31" rx="1.55" ry="1.9" fill="#201b19"/><circle cx="26.45" cy="30.45" r=".48" fill="#fff"/><circle cx="38.45" cy="30.45" r=".48" fill="#fff"/><path d="M31 32L30 35Q32 36.2 34 35" fill="none" stroke="#6d3d2d" stroke-width="1.05" stroke-linecap="round"/><circle cx="23.2" cy="35.2" r="1.25" fill="#ee8a83" opacity=".23"/><circle cx="40.8" cy="35.2" r="1.25" fill="#ee8a83" opacity=".23"/><circle cx="26" cy="31" r="4.45" fill="none" stroke="#303030" stroke-width="1.3"/><circle cx="38" cy="31" r="4.45" fill="none" stroke="#303030" stroke-width="1.3"/><path d="M30.35 31H33.65" stroke="#303030" stroke-width="1.15"/><path d="M27.2 36.2Q32 40 36.8 36.2" fill="none" stroke="#a35651" stroke-width="1.45" stroke-linecap="round"/></g></symbol>
  <symbol id="avatar-17" viewBox="0 0 64 64"><circle cx="32" cy="32" r="31" fill="#f4efe9"/><g clip-path="url(#clip)"><path d="M5 66C7 54 15 47 23 44C27 47 37 47 41 44C50 47 57 55 59 66Z" fill="#d28d59"/><rect x="28" y="39" width="8" height="11" rx="4" fill="#d69470"/><ellipse cx="32" cy="30" rx="14" ry="15" fill="#efbc98"/><ellipse cx="18.7" cy="31.5" rx="2.4" ry="3.1" fill="#d69470"/><ellipse cx="45.3" cy="31.5" rx="2.4" ry="3.1" fill="#d69470"/><path d="M17 30C15 17 22 7 32 7C42 7 49 17 47 30L44 42C41 48 37 51 32 51C24 51 18 46 17 39Z M18 23C12 25 12 32 15 37L18 40Z M46 23C52 25 52 32 49 37L46 40Z" fill="#74462f"/><path d="M23 27Q26 25 29 27M35 27Q38 25 41 27" fill="none" stroke="#3b2a25" stroke-width="1.35" stroke-linecap="round"/><ellipse cx="26" cy="31" rx="1.55" ry="1.9" fill="#201b19"/><ellipse cx="38" cy="31" rx="1.55" ry="1.9" fill="#201b19"/><circle cx="26.45" cy="30.45" r=".48" fill="#fff"/><circle cx="38.45" cy="30.45" r=".48" fill="#fff"/><path d="M31 32L30 35Q32 36.2 34 35" fill="none" stroke="#d69470" stroke-width="1.05" stroke-linecap="round"/><circle cx="23.2" cy="35.2" r="1.25" fill="#ee8a83" opacity=".23"/><circle cx="40.8" cy="35.2" r="1.25" fill="#ee8a83" opacity=".23"/><path d="M27.2 36.2Q32 40 36.8 36.2" fill="none" stroke="#a35651" stroke-width="1.45" stroke-linecap="round"/></g></symbol>
  <symbol id="avatar-18" viewBox="0 0 64 64"><circle cx="32" cy="32" r="31" fill="#eef1f7"/><g clip-path="url(#clip)"><path d="M5 66C7 54 15 47 23 44C27 47 37 47 41 44C50 47 57 55 59 66Z" fill="#52658b"/><path d="M21 25C22 15 27 10 32 10C39 10 44 16 44 25V40C41 45 37 47 32 47C26 47 22 44 20 39Z" fill="#d79a73"/><ellipse cx="18.7" cy="31.5" rx="2.4" ry="3.1" fill="#b77756"/><ellipse cx="45.3" cy="31.5" rx="2.4" ry="3.1" fill="#b77756"/><path d="M15 42C13 34 14 24 18 17C22 10 27 8 32 8C39 8 44 12 47 18C50 24 50 35 48 42C44 47 38 50 32 50C25 50 19 47 15 42Z" fill="#251a1b"/><path d="M23 27Q26 25 29 27M35 27Q38 25 41 27" fill="none" stroke="#3b2a25" stroke-width="1.35" stroke-linecap="round"/><ellipse cx="26" cy="31" rx="1.55" ry="1.9" fill="#201b19"/><ellipse cx="38" cy="31" rx="1.55" ry="1.9" fill="#201b19"/><circle cx="26.45" cy="30.45" r=".48" fill="#fff"/><circle cx="38.45" cy="30.45" r=".48" fill="#fff"/><path d="M31 32L30 35Q32 36.2 34 35" fill="none" stroke="#b77756" stroke-width="1.05" stroke-linecap="round"/><circle cx="23.2" cy="35.2" r="1.25" fill="#ee8a83" opacity=".23"/><circle cx="40.8" cy="35.2" r="1.25" fill="#ee8a83" opacity=".23"/><path d="M27.2 36.2Q32 40 36.8 36.2" fill="none" stroke="#a35651" stroke-width="1.45" stroke-linecap="round"/></g></symbol>
  <symbol id="avatar-19" viewBox="0 0 64 64"><circle cx="32" cy="32" r="31" fill="#f7f0ec"/><g clip-path="url(#clip)"><path d="M5 66C7 54 15 47 23 44C27 47 37 47 41 44C50 47 57 55 59 66Z" fill="#a76352"/><rect x="28" y="39" width="8" height="11" rx="4" fill="#d9a173"/><ellipse cx="32" cy="30" rx="14" ry="15" fill="#efc39f"/><ellipse cx="18.7" cy="31.5" rx="2.4" ry="3.1" fill="#d9a173"/><ellipse cx="45.3" cy="31.5" rx="2.4" ry="3.1" fill="#d9a173"/><path d="M16 30C15 16 21 7 32 7C43 7 49 16 48 30L46 43C42 49 38 51 32 51C24 51 18 45 16 38Z" fill="#c78145"/><path d="M23 27Q26 25 29 27M35 27Q38 25 41 27" fill="none" stroke="#3b2a25" stroke-width="1.35" stroke-linecap="round"/><ellipse cx="26" cy="31" rx="1.55" ry="1.9" fill="#201b19"/><ellipse cx="38" cy="31" rx="1.55" ry="1.9" fill="#201b19"/><circle cx="26.45" cy="30.45" r=".48" fill="#fff"/><circle cx="38.45" cy="30.45" r=".48" fill="#fff"/><path d="M31 32L30 35Q32 36.2 34 35" fill="none" stroke="#d9a173" stroke-width="1.05" stroke-linecap="round"/><circle cx="23.2" cy="35.2" r="1.25" fill="#ee8a83" opacity=".23"/><circle cx="40.8" cy="35.2" r="1.25" fill="#ee8a83" opacity=".23"/><path d="M27.2 36.2Q32 40 36.8 36.2" fill="none" stroke="#a35651" stroke-width="1.45" stroke-linecap="round"/></g></symbol>
  <symbol id="avatar-20" viewBox="0 0 64 64"><circle cx="32" cy="32" r="31" fill="#f1eef8"/><g clip-path="url(#clip)"><path d="M5 66C7 54 15 47 23 44C27 47 37 47 41 44C50 47 57 55 59 66Z" fill="#7f659e"/><rect x="28" y="39" width="8" height="11" rx="4" fill="#85482f"/><ellipse cx="32" cy="30" rx="14" ry="15" fill="#a8664c"/><ellipse cx="18.7" cy="31.5" rx="2.4" ry="3.1" fill="#85482f"/><ellipse cx="45.3" cy="31.5" rx="2.4" ry="3.1" fill="#85482f"/><path d="M16 29C15 17 22 7 32 7C42 7 49 16 47 29L44 38L40 30C37 23 27 22 21 30L18 38Z" fill="#171515"/><path d="M23 27Q26 25 29 27M35 27Q38 25 41 27" fill="none" stroke="#3b2a25" stroke-width="1.35" stroke-linecap="round"/><ellipse cx="26" cy="31" rx="1.55" ry="1.9" fill="#201b19"/><ellipse cx="38" cy="31" rx="1.55" ry="1.9" fill="#201b19"/><circle cx="26.45" cy="30.45" r=".48" fill="#fff"/><circle cx="38.45" cy="30.45" r=".48" fill="#fff"/><path d="M31 32L30 35Q32 36.2 34 35" fill="none" stroke="#85482f" stroke-width="1.05" stroke-linecap="round"/><circle cx="23.2" cy="35.2" r="1.25" fill="#ee8a83" opacity=".23"/><circle cx="40.8" cy="35.2" r="1.25" fill="#ee8a83" opacity=".23"/><circle cx="26" cy="31" r="4.45" fill="none" stroke="#303030" stroke-width="1.3"/><circle cx="38" cy="31" r="4.45" fill="none" stroke="#303030" stroke-width="1.3"/><path d="M30.35 31H33.65" stroke="#303030" stroke-width="1.15"/><path d="M27.2 36.2Q32 40 36.8 36.2" fill="none" stroke="#a35651" stroke-width="1.45" stroke-linecap="round"/></g></symbol>
  <symbol id="avatar-21" viewBox="0 0 64 64"><circle cx="32" cy="32" r="31" fill="#eef4f7"/><g clip-path="url(#clip)"><path d="M5 66C7 54 15 47 23 44C27 47 37 47 41 44C50 47 57 55 59 66Z" fill="#65879c"/><rect x="28" y="39" width="8" height="11" rx="4" fill="#dda77f"/><ellipse cx="32" cy="30" rx="14" ry="15" fill="#f5c8a0"/><ellipse cx="18.7" cy="31.5" rx="2.4" ry="3.1" fill="#dda77f"/><ellipse cx="45.3" cy="31.5" rx="2.4" ry="3.1" fill="#dda77f"/><path d="M16 31C14 17 20 6 32 6C45 6 51 18 48 32L45 45C41 50 37 52 32 52C24 52 18 47 16 39Z" fill="#b49573"/><path d="M23 27Q26 25 29 27M35 27Q38 25 41 27" fill="none" stroke="#3b2a25" stroke-width="1.35" stroke-linecap="round"/><ellipse cx="26" cy="31" rx="1.55" ry="1.9" fill="#201b19"/><ellipse cx="38" cy="31" rx="1.55" ry="1.9" fill="#201b19"/><circle cx="26.45" cy="30.45" r=".48" fill="#fff"/><circle cx="38.45" cy="30.45" r=".48" fill="#fff"/><path d="M31 32L30 35Q32 36.2 34 35" fill="none" stroke="#dda77f" stroke-width="1.05" stroke-linecap="round"/><circle cx="23.2" cy="35.2" r="1.25" fill="#ee8a83" opacity=".23"/><circle cx="40.8" cy="35.2" r="1.25" fill="#ee8a83" opacity=".23"/><path d="M27.2 36.2Q32 40 36.8 36.2" fill="none" stroke="#a35651" stroke-width="1.45" stroke-linecap="round"/></g></symbol>
  <symbol id="avatar-22" viewBox="0 0 64 64"><circle cx="32" cy="32" r="31" fill="#f7edf0"/><g clip-path="url(#clip)"><path d="M5 66C7 54 15 47 23 44C27 47 37 47 41 44C50 47 57 55 59 66Z" fill="#8b5b6d"/><rect x="28" y="39" width="8" height="11" rx="4" fill="#c8835f"/><ellipse cx="32" cy="30" rx="14" ry="15" fill="#dfa57f"/><ellipse cx="18.7" cy="31.5" rx="2.4" ry="3.1" fill="#c8835f"/><ellipse cx="45.3" cy="31.5" rx="2.4" ry="3.1" fill="#c8835f"/><path d="M16 29C15 17 22 7 32 7C42 7 49 16 47 29L44 38L40 30C37 23 27 22 21 30L18 38Z" fill="#d27084"/><path d="M23 27Q26 25 29 27M35 27Q38 25 41 27" fill="none" stroke="#3b2a25" stroke-width="1.35" stroke-linecap="round"/><ellipse cx="26" cy="31" rx="1.55" ry="1.9" fill="#201b19"/><ellipse cx="38" cy="31" rx="1.55" ry="1.9" fill="#201b19"/><circle cx="26.45" cy="30.45" r=".48" fill="#fff"/><circle cx="38.45" cy="30.45" r=".48" fill="#fff"/><path d="M31 32L30 35Q32 36.2 34 35" fill="none" stroke="#c8835f" stroke-width="1.05" stroke-linecap="round"/><circle cx="23.2" cy="35.2" r="1.25" fill="#ee8a83" opacity=".23"/><circle cx="40.8" cy="35.2" r="1.25" fill="#ee8a83" opacity=".23"/><path d="M27.2 36.2Q32 40 36.8 36.2" fill="none" stroke="#a35651" stroke-width="1.45" stroke-linecap="round"/></g></symbol>
  <symbol id="avatar-23" viewBox="0 0 64 64"><circle cx="32" cy="32" r="31" fill="#edf3ee"/><g clip-path="url(#clip)"><path d="M6 66C8 53 17 45 32 45S56 53 58 66Z" fill="#4e7d64"/><rect x="28" y="39" width="8" height="11" rx="4" fill="#5a3326"/><ellipse cx="32" cy="30" rx="14" ry="15" fill="#754632"/><ellipse cx="18.7" cy="31.5" rx="2.4" ry="3.1" fill="#5a3326"/><ellipse cx="45.3" cy="31.5" rx="2.4" ry="3.1" fill="#5a3326"/><path d="M16 31C14 18 20 6 32 6C44 6 50 18 47 31L44 42C40 49 36 52 32 52C24 52 18 46 16 39Z M18 14L14 20L18 23L14 28L19 29L15 35L20 36 M46 14L50 20L46 23L50 28L45 29L49 35L44 36" fill="#131313"/><path d="M23 27Q26 25 29 27M35 27Q38 25 41 27" fill="none" stroke="#3b2a25" stroke-width="1.35" stroke-linecap="round"/><ellipse cx="26" cy="31" rx="1.55" ry="1.9" fill="#201b19"/><ellipse cx="38" cy="31" rx="1.55" ry="1.9" fill="#201b19"/><circle cx="26.45" cy="30.45" r=".48" fill="#fff"/><circle cx="38.45" cy="30.45" r=".48" fill="#fff"/><path d="M31 32L30 35Q32 36.2 34 35" fill="none" stroke="#5a3326" stroke-width="1.05" stroke-linecap="round"/><circle cx="23.2" cy="35.2" r="1.25" fill="#ee8a83" opacity=".23"/><circle cx="40.8" cy="35.2" r="1.25" fill="#ee8a83" opacity=".23"/><circle cx="26" cy="31" r="4.45" fill="none" stroke="#303030" stroke-width="1.3"/><circle cx="38" cy="31" r="4.45" fill="none" stroke="#303030" stroke-width="1.3"/><path d="M30.35 31H33.65" stroke="#303030" stroke-width="1.15"/><path d="M27.2 36.2Q32 40 36.8 36.2" fill="none" stroke="#a35651" stroke-width="1.45" stroke-linecap="round"/></g></symbol>
  <symbol id="avatar-24" viewBox="0 0 64 64"><circle cx="32" cy="32" r="31" fill="#f5f0e9"/><g clip-path="url(#clip)"><path d="M6 66C8 53 17 45 32 45S56 53 58 66Z" fill="#786650"/><rect x="28" y="39" width="8" height="11" rx="4" fill="#98533c"/><ellipse cx="32" cy="30" rx="14" ry="15" fill="#bd7b5a"/><ellipse cx="18.7" cy="31.5" rx="2.4" ry="3.1" fill="#98533c"/><ellipse cx="45.3" cy="31.5" rx="2.4" ry="3.1" fill="#98533c"/><path d="M17 29C15 17 21 7 32 7C43 7 49 16 47 29C42 23 37 20 30 20C24 20 20 23 17 29Z M20 17C27 10 36 9 43 14C36 13 30 15 24 20Z" fill="#2b211d"/><path d="M23 27Q26 25 29 27M35 27Q38 25 41 27" fill="none" stroke="#3b2a25" stroke-width="1.35" stroke-linecap="round"/><ellipse cx="26" cy="31" rx="1.55" ry="1.9" fill="#201b19"/><ellipse cx="38" cy="31" rx="1.55" ry="1.9" fill="#201b19"/><circle cx="26.45" cy="30.45" r=".48" fill="#fff"/><circle cx="38.45" cy="30.45" r=".48" fill="#fff"/><path d="M31 32L30 35Q32 36.2 34 35" fill="none" stroke="#98533c" stroke-width="1.05" stroke-linecap="round"/><circle cx="23.2" cy="35.2" r="1.25" fill="#ee8a83" opacity=".23"/><circle cx="40.8" cy="35.2" r="1.25" fill="#ee8a83" opacity=".23"/><circle cx="19" cy="34.6" r="1.7" fill="#c9a348"/><circle cx="45" cy="34.6" r="1.7" fill="#c9a348"/><path d="M27.2 36.2Q32 40 36.8 36.2" fill="none" stroke="#a35651" stroke-width="1.45" stroke-linecap="round"/></g></symbol>
</svg>
